<?xml version="1.0" encoding="utf-8"?>
<!-- Generator: Adobe Illustrator 24.3.0, SVG Export Plug-In . SVG Version: 6.00 Build 0)  -->
<svg version="1.1" id="Capa_1" xmlns="http://www.w3.org/2000/svg" xmlns:xlink="http://www.w3.org/1999/xlink" x="0px" y="0px"
	 viewBox="0 0 255.12 81.56" style="enable-background:new 0 0 255.12 81.56;" xml:space="preserve">
<style type="text/css">
	.st0{fill:#A28234;}
	.st1{fill:#A28234;}
</style>
<path class="st0" d="M103.36,74.76c-2.03-0.05-3.9-0.07-5.9-0.1V64.34l10.08,0.01L94.9,57.51l-2.33-1.28V5.27H68.76v15.55
	l-9.77,3.89v17l-8.25,4.33v28.03h-1.91V51.94l-10.19,5.59l-12.61,6.81l9.62-0.01v10.32c-2.03,0.02-3.92,0.05-5.98,0.1
	c-7.45,0.14-14.9,0.81-22.34,1.19c7.45,0.39,14.9,0.12,22.34,0.26c1.98,0.05,3.99,0.07,5.98,0.09v0.02h2.63V62.09h-1.5l0-0.39h-0.34
	l1.15-0.62l0.01,0.02l2.48-1.36l2.77-1.49l-0.01-0.02l3.38-1.85V76.7h5.49v-0.39h1.67V47.63l5.62-2.95v32.06h9.48v-0.42l0.98,0.01
	l0.44-40.34l-8.27,4.34V26.49l18.61-7.41V76.4h1.87l0.01,0.39l5.26-0.1v-20.3l3.38,1.85l-0.01,0.02l2.75,1.49l2.49,1.37l0.01-0.02
	l1.15,0.62H96.8l0,0.39h-1.97v14.23h2.63V76.3c1.96-0.02,3.94-0.05,5.9-0.09c7.45-0.14,14.9,0.13,22.34-0.26
	C118.25,75.56,110.8,74.89,103.36,74.76z M67.21,40.36l-0.37,33.75h-5.23V43.3L67.21,40.36z M84.74,51.94V74.1l-1.89,0.04V15.21
	l-11.46,4.56V7.9h18.55v46.9L84.74,51.94z"/>
<g>
	<path class="st1" d="M107.63,32.25c3.84,0,5.34,2.72,5.34,8.03v1.02c0,5.31-1.5,8-5.34,8h-0.3c-3.82,0-5.34-2.69-5.34-8v-1.02
		c0-5.31,1.52-8.03,5.34-8.03H107.63z M109.55,39.83c0-3.47-0.57-4.79-2.07-4.79s-2.07,1.32-2.07,4.79v1.92
		c0,3.47,0.57,4.76,2.07,4.76s2.07-1.3,2.07-4.76V39.83z"/>
	<path class="st1" d="M119.32,39.86c-0.25-0.55-0.5-1.47-0.5-1.47l-0.15,0.02l0.15,2.07v8.53h-3.37V32.55h3.74l4.29,9.15
		c0.22,0.47,0.5,1.5,0.5,1.5l0.13-0.02l-0.13-2.09v-8.53h3.37v16.46h-3.74L119.32,39.86z"/>
	<path class="st1" d="M130.19,32.55h7.98v2.79h-4.61v3.94h3.87v2.44h-3.87v4.49h4.86v2.79h-8.23V32.55z"/>
	<path class="st1" d="M150.17,37.66c0,2.09-1.02,3.49-2.92,4.06v0.05c0,0,0.32,0.25,0.57,0.87l2.69,6.36h-1.75l-2.72-6.33
		c-0.2-0.47-0.47-0.65-1.1-0.65h-2.64v6.98h-1.62V32.55h4.01c3.87,0,5.46,1.8,5.46,4.81V37.66z M142.31,34v6.73h2.67
		c2.49,0,3.57-1.12,3.57-3.02v-0.25c0-2.59-1.37-3.47-3.96-3.47H142.31z"/>
	<path class="st1" d="M153.13,32.55h7.48V34h-5.86v5.79h5.11v1.32h-5.11v6.46h6.11v1.45h-7.73V32.55z"/>
	<path class="st1" d="M170.46,44.47h-5.76l-1.35,4.54h-1.7l5.06-16.46h1.75l5.06,16.46h-1.7L170.46,44.47z M165.15,43.02h4.89
		l-2.09-6.98c-0.15-0.52-0.3-1.4-0.3-1.4h-0.1c0,0-0.15,0.9-0.3,1.4L165.15,43.02z"/>
	<path class="st1" d="M175.65,32.55h1.62v15.01h5.61v1.45h-7.23V32.55z"/>
	<path class="st1" d="M184.6,32.55h7.98v2.79h-4.61v3.94h3.87v2.44h-3.87v4.49h4.86v2.79h-8.23V32.55z"/>
	<path class="st1" d="M194.63,46.29l0.35-0.17c0,0,1.57,0.4,3.14,0.4c1.92,0,2.59-0.87,2.59-2.27c0-0.9-0.42-1.47-1.57-1.89
		l-1.94-0.72c-1.75-0.65-3.04-1.87-3.04-4.34c0-3.22,1.7-5.04,5.69-5.04c1.55,0,3.12,0.3,3.12,0.32c-0.05,1.12-0.22,2.54-0.22,2.54
		l-0.32,0.2c0,0-1.22-0.27-2.39-0.27c-1.89,0-2.49,0.85-2.49,2.07c0,0.95,0.45,1.47,1.3,1.8l1.87,0.7c2.27,0.85,3.39,2.22,3.39,4.46
		c0,3.24-1.5,5.24-5.69,5.24c-1.82,0-3.57-0.37-3.67-0.4C194.6,47.76,194.63,46.29,194.63,46.29z"/>
	<path class="st1" d="M204.35,32.55h9.25v2.79h-2.94v13.66h-3.37V35.34h-2.94V32.55z"/>
	<path class="st1" d="M221.24,45.82h-4.16l-0.7,3.19h-3.44l3.84-16.46h4.79l3.84,16.46h-3.44L221.24,45.82z M217.67,43.02h2.97
		l-0.87-3.99c-0.17-0.77-0.52-3.12-0.52-3.12h-0.17c0,0-0.27,2.12-0.5,3.12L217.67,43.02z"/>
	<path class="st1" d="M224.73,32.55h9.25v2.79h-2.94v13.66h-3.37V35.34h-2.94V32.55z"/>
	<path class="st1" d="M235.7,32.55h7.98v2.79h-4.61v3.94h3.87v2.44h-3.87v4.49h4.86v2.79h-8.23V32.55z"/>
</g>
</svg>
