<?xml version="1.0" encoding="utf-8"?>
<!-- Generator: Adobe Illustrator 24.1.2, SVG Export Plug-In . SVG Version: 6.00 Build 0)  -->
<svg version="1.1" id="Layer_2" xmlns="http://www.w3.org/2000/svg" xmlns:xlink="http://www.w3.org/1999/xlink" x="0px" y="0px"
	 viewBox="0 0 100 100" style="enable-background:new 0 0 100 100;" xml:space="preserve">
<style type="text/css">
	.st0{fill:#FFFFFF;}
</style>
<path class="st0" d="M0,82.2c0-0.4,0.1-0.8,0.1-1.1c0.5-2.8,1.6-5.3,3.7-7.3c1.3-1.4,2.8-2.5,4.6-3.2c1-0.4,2-0.6,3-0.9
	c3.7-1,7.4-2,11.2-3c1.6-0.4,3.3-0.4,4.9-0.1c1.9,0.3,3.7,1,5.3,2.1c0.4,0.3,0.8,0.6,1.2,1c1.5,1.5,3,3,4.5,4.5
	c0.2,0.2,0.3,0.2,0.5,0.1c6.5-1.8,12.4-4.8,17.7-8.9c5.8-4.5,10.3-10,13.7-16.5c1.6-3.1,2.9-6.3,3.8-9.7c0-0.2,0-0.3-0.1-0.4
	c-1.4-1.4-2.8-2.8-4.2-4.2c-1.4-1.3-2.3-2.9-2.9-4.7c-0.6-1.8-0.9-3.7-0.7-5.6c0.1-0.9,0.4-1.8,0.6-2.7c1.1-3.9,2.1-7.8,3.2-11.8
	c0.5-1.7,1.3-3.1,2.4-4.4c1.4-1.6,3-3,4.9-3.9c1.3-0.6,2.7-1.1,4.1-1.2c2.1-0.2,4.2,0.2,6.2,1C88.9,1.6,90,2.3,91,3.3
	c2.1,2.1,4.2,4.2,6.3,6.3c0.9,0.9,1.5,1.9,1.9,3c0.3,0.8,0.5,1.6,0.7,2.4c0,0,0,0.1,0,0.1c0,0.7,0,1.3,0,2c0,0.1,0,0.1,0,0.2
	c0,2.7-0.2,5.3-0.5,8c-0.3,3.2-0.9,6.3-1.6,9.4c-1.6,7.1-4.1,13.9-7.5,20.3c-3.8,7.2-8.6,13.8-14.3,19.7c-3.1,3.2-6.5,6.1-10.1,8.8
	c-8.1,6-17,10.4-26.7,13.2c-4.4,1.3-9,2.2-13.6,2.7c-2.7,0.3-5.3,0.5-8,0.5c-0.4,0-0.7,0-1.1,0c-0.4,0-0.7,0-1.1,0
	c-0.1,0-0.3,0-0.4-0.1c-0.8-0.2-1.7-0.5-2.5-0.7c-1.1-0.4-2.1-1-3-1.9c-2.1-2.2-4.2-4.3-6.4-6.4c-0.2-0.2-0.3-0.3-0.5-0.5
	c-1.5-1.7-2.2-3.7-2.6-6C0.1,84,0.1,83.6,0,83.2C0,82.8,0,82.5,0,82.2z"/>
</svg>
