<svg id="Layer_1" data-name="Layer 1" xmlns="http://www.w3.org/2000/svg" viewBox="0 0 665 996.84"><defs><style>.cls-1{fill:#2a385d;}</style></defs><path d="M332.5,0C148.87,0,0,148.86,0,332.54q0,5.41.18,10.85A331.77,331.77,0,0,0,10,413.78q2.87,10.92,6.46,22.36C81,641.81,314.81,972,332,996.14l.5.7.5-.7c17.19-24.12,251-354.33,315.54-560q3.62-11.46,6.46-22.36a332.12,332.12,0,0,0,9.82-70.35q.18-5.42.18-10.87C665,148.86,516.13,0,332.5,0Zm0,498.42A170.5,170.5,0,1,1,503,327.92,170.51,170.51,0,0,1,332.5,498.42Z"/><path class="cls-1" d="M.18,343.37A331.12,331.12,0,0,0,10,413.76C3.09,387.4-.5,363.59.18,343.37Z"/><path class="cls-1" d="M655,413.76a331.77,331.77,0,0,0,9.83-70.39C665.5,363.59,661.91,387.4,655,413.76Z"/><path class="cls-1" d="M10,413.76q2.85,10.9,6.46,22.36Q12.85,425.11,10,413.76Z"/><path class="cls-1" d="M655,413.76q-2.84,11.34-6.46,22.36Q652.13,424.68,655,413.76Z"/></svg>