<svg width="394" height="71" viewBox="0 0 394 71" fill="none" xmlns="http://www.w3.org/2000/svg">
<path d="M88.9135 68.3889C87.0039 68.3078 85.3234 68.3078 83.4137 68.3078V58.0859H92.7328L81.0458 51.3525L78.9069 50.0545V0H56.8313V15.2516L47.8178 19.1456V35.8575L40.1791 40.0761V67.6588H38.4223V45.9171L28.9504 51.4336L17.2633 58.0859H26.2005V68.2266C24.2908 68.2266 22.5339 68.3078 20.7007 68.3078C13.8259 68.47 6.87476 69.119 0 69.4435C6.87476 69.8492 13.8259 69.5247 20.7007 69.6869C22.5339 69.768 24.3672 69.768 26.2005 69.768H28.6448V55.8955H27.2699V55.4899H26.9643L28.0337 54.8409L30.3253 53.5429L32.9225 52.0826L36.0543 50.2979V70.2548H41.1722V69.8492H42.6999V41.6986L47.8941 38.778V70.3359H56.6786V69.9303H57.5952L57.9771 30.2599L50.3385 34.5595V20.9304L67.6018 13.6291V70.0114H69.3587V70.417L74.2474 70.3359V50.2979L77.3792 52.0826L79.9 53.5429L82.1916 54.922L83.261 55.571H82.9554V55.9767H81.1221V69.9303H83.5665C85.3998 69.9303 87.233 69.8492 89.0663 69.8492C95.9411 69.6869 102.892 70.0114 109.767 69.6058C102.663 69.119 95.7883 68.47 88.9135 68.3889ZM55.4564 34.5595L55.1508 67.7399H50.3385V37.3989L55.4564 34.5595ZM71.6503 45.9171V67.7399H69.8934V9.8162L59.2757 14.2781V2.59602H76.4626V48.6754L71.6503 45.9171Z" fill="white"/>
<path d="M111.676 16.386C119.697 16.386 122.752 22.3893 122.752 34.0714V36.3429C122.752 48.025 119.621 53.9472 111.676 53.9472H111.065C103.121 53.9472 99.9893 48.025 99.9893 36.3429V34.0714C99.9893 22.3893 103.121 16.386 111.065 16.386H111.676ZM115.725 33.0979C115.725 25.4721 114.579 22.5515 111.447 22.5515C108.315 22.5515 107.17 25.4721 107.17 33.0979V37.3164C107.17 44.9422 108.315 47.7816 111.447 47.7816C114.579 47.7816 115.725 44.9422 115.725 37.3164V33.0979Z" fill="white"/>
<path d="M135.891 33.1803C135.356 31.9635 134.821 29.9353 134.821 29.9353L134.516 30.0164L134.821 34.5595V53.2995H127.87V17.1175H135.585L144.446 37.2366C144.904 38.2912 145.515 40.5628 145.515 40.5628L145.821 40.4816L145.515 35.8575V17.1175H152.466V53.2995H144.751L135.891 33.1803Z" fill="white"/>
<path d="M158.425 17.1175H174.924V23.2019H165.376V31.8823H173.396V37.2366H165.376V47.1339H175.459V53.2995H158.425V17.1175Z" fill="white"/>
<path d="M199.826 28.3128C199.826 32.937 197.687 36.0197 193.791 37.2366V37.3177C193.791 37.3177 194.479 37.8856 194.937 39.2648L200.513 53.2184H196.923L191.271 39.2648C190.889 38.2101 190.278 37.8045 188.979 37.8045H183.479V53.1372H180.118V17.1175H188.444C196.465 17.1175 199.749 21.0926 199.749 27.6638L199.826 28.3128ZM183.556 20.2814V35.0462H189.055C194.25 35.0462 196.465 32.6125 196.465 28.3939V27.826C196.465 22.1473 193.639 20.2002 188.291 20.2002L183.556 20.2814Z" fill="white"/>
<path d="M205.937 17.1175H221.443V20.2814H209.298V33.0181H219.915V35.9386H209.298V50.1356H221.978V53.2995H205.937V17.1175Z" fill="white"/>
<path d="M241.838 43.321H229.922L227.096 53.2995H223.582L234.047 17.1175H237.637L248.102 53.2995H244.588L241.838 43.321ZM230.839 40.076H240.998L236.644 24.7433C236.339 23.6075 236.033 21.6605 236.033 21.6605H235.804C235.804 21.6605 235.498 23.6075 235.193 24.7433L230.839 40.076Z" fill="white"/>
<path d="M252.609 17.1175H255.97V50.1356H267.581V53.2995H252.609V17.1175Z" fill="white"/>
<path d="M271.095 17.1175H287.594V23.2019H278.046V31.8823H286.066V37.2366H278.046V47.1339H288.129V53.2995H271.095V17.1175Z" fill="white"/>
<path d="M291.871 47.2962L292.559 46.8906C292.559 46.8906 295.843 47.783 299.051 47.783C303.024 47.783 304.398 45.8359 304.398 42.7532C304.398 40.8062 303.558 39.5081 301.114 38.6158L297.065 36.9932C293.475 35.533 290.802 32.8558 290.802 27.4204C290.802 20.3625 294.316 16.3062 302.565 16.3062C305.773 16.3062 309.058 16.9552 309.058 17.0363C308.982 19.4701 308.6 22.634 308.6 22.634L307.912 23.0396C307.912 23.0396 305.392 22.4718 302.947 22.4718C299.051 22.4718 297.753 24.3377 297.753 27.0148C297.753 29.1241 298.67 30.2598 300.426 30.99L304.322 32.5313C309.058 34.3972 311.35 37.3989 311.35 42.3475C311.35 49.4866 308.218 53.8674 299.586 53.8674C295.843 53.8674 292.177 53.0561 291.948 52.975C291.795 50.5412 291.871 47.2962 291.871 47.2962Z" fill="white"/>
<path d="M312.037 17.1175H331.21V23.2019H325.099V53.2184H318.148V23.2019H312.037V17.1175Z" fill="white"/>
<path d="M347.022 46.2416H338.39L336.939 53.2184H329.835L337.779 17.0363H347.709L355.653 53.2184H348.55L347.022 46.2416ZM339.612 40.076H345.8L343.966 31.3145C343.584 29.6108 342.897 24.4188 342.897 24.4188H342.515C342.515 24.4188 341.98 29.0429 341.446 31.3145L339.612 40.076Z" fill="white"/>
<path d="M354.202 17.1175H373.375V23.2019H367.264V53.2184H360.313V23.2019H354.202V17.1175Z" fill="white"/>
<path d="M376.966 17.1175H393.465V23.2019H383.917V31.8823H391.938V37.2366H383.917V47.1339H394V53.2995H376.966V17.1175Z" fill="white"/>
</svg>
