<svg width="518" height="332" viewBox="0 0 518 332" fill="none" xmlns="http://www.w3.org/2000/svg">
<path d="M419.591 322.438C410.579 322.055 402.649 322.055 393.637 322.055V273.862H437.614L382.462 242.115L372.369 235.995V0H268.192V71.9078L225.656 90.2673V169.06L189.609 188.949V318.995H181.318V216.488L136.619 242.498L81.467 273.862H123.642V321.673C114.63 321.673 106.34 322.055 97.6883 322.055C65.2457 322.82 32.4426 325.88 0 327.41C32.4426 329.323 65.2457 327.793 97.6883 328.558C106.34 328.94 114.991 328.94 123.642 328.94H135.177V263.535H128.689V261.622H127.247L132.294 258.562L143.108 252.442L155.364 245.558L170.143 237.143V331.235H194.295V329.323H201.505V196.599L226.017 182.83V331.618H267.471V329.705H271.797L273.599 142.668L237.552 162.94V98.682L319.019 64.2581V330.088H327.31V332L350.38 331.618V237.143L365.159 245.558L377.055 252.442L387.869 258.945L392.916 262.005H391.474V263.917H382.823V329.705H394.358C403.009 329.705 411.66 329.323 420.312 329.323C452.754 328.558 485.557 330.088 518 328.175C484.476 325.88 452.033 322.82 419.591 322.438ZM261.704 162.94L260.262 319.378H237.552V176.327L261.704 162.94ZM338.124 216.488V319.378H329.833V46.2811L279.727 67.318V12.2396H360.834V229.493L338.124 216.488Z" fill="black" fill-opacity="0.3"/>
</svg>
