<?xml version="1.0" encoding="utf-8"?>
<!-- Generator: Adobe Illustrator 24.3.0, SVG Export Plug-In . SVG Version: 6.00 Build 0)  -->
<svg version="1.1" id="Capa_1" xmlns="http://www.w3.org/2000/svg" xmlns:xlink="http://www.w3.org/1999/xlink" x="0px" y="0px"
	 viewBox="0 0 559.5 113.6" style="enable-background:new 0 0 559.5 113.6;" xml:space="preserve">
<path d="M132.7,97.7c-2.5-0.1-4.7-0.1-7.2-0.1V85l12.2,0l-15.3-8.3l-2.8-1.6V13.4H90.7v18.8L78.9,37v20.6l-10,5.2v34h-2.3V70
	l-12.4,6.8L38.9,85l11.7,0v12.5c-2.5,0-4.8,0.1-7.2,0.1c-9,0.2-18.1,1-27.1,1.4c9,0.5,18.1,0.1,27.1,0.3c2.4,0.1,4.8,0.1,7.2,0.1v0
	h3.2V82.3H52v-0.5h-0.4l1.4-0.8l0,0l3-1.6l3.4-1.8l0,0l4.1-2.2V100h6.7v-0.5h2V64.8l6.8-3.6v38.9h11.5v-0.5l1.2,0l0.5-48.9l-10,5.3
	V39.2l22.6-9v69.5h2.3l0,0.5l6.4-0.1V75.4l4.1,2.2l0,0l3.3,1.8l3,1.7l0,0l1.4,0.8h-0.4v0.5h-2.4v17.2h3.2v0c2.4,0,4.8-0.1,7.2-0.1
	c9-0.2,18.1,0.2,27.1-0.3C150.7,98.6,141.7,97.8,132.7,97.7z M88.9,56l-0.4,40.9h-6.3V59.5L88.9,56z M110.1,70v26.9l-2.3,0V25.5
	L93.9,31V16.6h22.5v56.8L110.1,70z"/>
<g>
	<path d="M162.5,33.6C173,33.6,177,41,177,55.4v2.8c0,14.4-4.1,21.7-14.5,21.7h-0.8c-10.4,0-14.5-7.3-14.5-21.7v-2.8
		c0-14.4,4.1-21.8,14.5-21.8H162.5z M167.8,54.2c0-9.4-1.5-13-5.6-13c-4.1,0-5.6,3.6-5.6,13v5.2c0,9.4,1.5,12.9,5.6,12.9
		c4.1,0,5.6-3.5,5.6-12.9V54.2z"/>
	<path d="M194.2,54.3c-0.7-1.5-1.4-4-1.4-4l-0.4,0.1l0.4,5.6v23.1h-9.1V34.5h10.1l11.6,24.8c0.6,1.3,1.4,4.1,1.4,4.1l0.4-0.1
		l-0.4-5.7V34.5h9.1v44.6h-10.1L194.2,54.3z"/>
	<path d="M223.7,34.5h21.6V42h-12.5v10.7h10.5v6.6h-10.5v12.2H246v7.6h-22.3V34.5z"/>
	<path d="M277.9,48.3c0,5.7-2.8,9.5-7.9,11v0.1c0,0,0.9,0.7,1.5,2.4l7.3,17.2h-4.7l-7.4-17.2c-0.5-1.3-1.3-1.8-3-1.8h-7.2v18.9h-4.4
		V34.5H263c10.5,0,14.8,4.9,14.8,13L277.9,48.3L277.9,48.3z M256.6,38.4v18.2h7.2c6.8,0,9.7-3,9.7-8.2v-0.7c0-7-3.7-9.4-10.7-9.4
		L256.6,38.4L256.6,38.4z"/>
	<path d="M285.9,34.5h20.3v3.9h-15.9v15.7h13.9v3.6h-13.9v17.5h16.6v3.9h-21V34.5z"/>
	<path d="M332.9,66.8h-15.6l-3.7,12.3H309l13.7-44.6h4.7l13.7,44.6h-4.6L332.9,66.8z M318.5,62.8h13.3l-5.7-18.9
		c-0.4-1.4-0.8-3.8-0.8-3.8H325c0,0-0.4,2.4-0.8,3.8L318.5,62.8z"/>
	<path d="M347,34.5h4.4v40.7h15.2v3.9H347V34.5z"/>
	<path d="M371.2,34.5h21.6V42h-12.5v10.7h10.5v6.6h-10.5v12.2h13.2v7.6h-22.3V34.5z"/>
	<path d="M398.4,71.7l0.9-0.5c0,0,4.3,1.1,8.5,1.1c5.2,0,7-2.4,7-6.2c0-2.4-1.1-4-4.3-5.1l-5.3-2c-4.7-1.8-8.2-5.1-8.2-11.8
		c0-8.7,4.6-13.7,15.4-13.7c4.2,0,8.5,0.8,8.5,0.9c-0.1,3-0.6,6.9-0.6,6.9l-0.9,0.5c0,0-3.3-0.7-6.5-0.7c-5.1,0-6.8,2.3-6.8,5.6
		c0,2.6,1.2,4,3.5,4.9l5.1,1.9c6.2,2.3,9.2,6,9.2,12.1c0,8.8-4.1,14.2-15.4,14.2c-4.9,0-9.7-1-10-1.1
		C398.3,75.7,398.4,71.7,398.4,71.7z"/>
	<path d="M424.8,34.5h25.1V42h-8v37h-9.1V42h-8V34.5z"/>
	<path d="M470.6,70.4h-11.3l-1.9,8.6h-9.3l10.4-44.6h13l10.4,44.6h-9.3L470.6,70.4z M460.9,62.8h8.1L466.6,52
		c-0.5-2.1-1.4-8.5-1.4-8.5h-0.5c0,0-0.7,5.7-1.4,8.5L460.9,62.8z"/>
	<path d="M480,34.5h25.1V42h-8v37H488V42h-8V34.5z"/>
	<path d="M509.8,34.5h21.6V42h-12.5v10.7h10.5v6.6h-10.5v12.2h13.2v7.6h-22.3V34.5z"/>
</g>
</svg>
