<svg id="Layer_1" data-name="Layer 1" xmlns="http://www.w3.org/2000/svg" viewBox="0 0 1615.67 341.83"><defs><style>.cls-1{fill:#a18950;}.cls-2{fill:none;stroke:#a18950;stroke-miterlimit:10;stroke-width:10px;}</style></defs><path class="cls-1" d="M203.51,345.69c-10.27-.12-20.72-.25-31-.48-35.78-.66-71.56.6-107.33-1.26,35.77-1.86,71.55-5.08,107.33-5.73,10.61-.25,20.31-.38,30.91-.49" transform="translate(-65.18 -4.81)"/><path class="cls-1" d="M495.51,345.69c10.28-.12,20.73-.25,31-.48,35.77-.66,71.55.6,107.33-1.26-35.78-1.86-71.56-5.08-107.33-5.73-10.61-.25-20.31-.38-30.91-.49" transform="translate(-65.18 -4.81)"/><polyline class="cls-2" points="142.36 262.28 193.08 234.46 193.08 336.46 213.16 336.46"/><line class="cls-2" x1="142.36" y1="340.92" x2="142.36" y2="272.58"/><polyline class="cls-2" points="356.52 341.29 356.52 56.67 254.51 97.28 254.51 334.96 254.51 336.65 293.75 336.65"/><polyline class="cls-2" points="214.89 340.92 214.89 199.29 294.12 157.69 292.14 340.92"/><polyline class="cls-2" points="141.45 277.04 114.84 277.06 167.58 248.56"/><polyline class="cls-2" points="428.92 262.28 378.21 234.46 378.21 336.46 359.12 336.83"/><line class="cls-2" x1="426.68" y1="340.92" x2="426.68" y2="272.58"/><polyline class="cls-2" points="403.71 248.56 456.45 277.06 429.83 277.04"/><polyline class="cls-2" points="301.45 77.96 301.45 5.91 403.2 5.91 403.2 248.07"/><path class="cls-1" d="M1542.5,344.78c10.28-.12,20.73-.25,31-.48,35.78-.66,71.55.6,107.33-1.26-35.78-1.86-71.55-5.08-107.33-5.73-10.61-.25-20.31-.38-30.91-.49" transform="translate(-65.18 -4.81)"/><path class="cls-1" d="M1250.51,344.78c-10.28-.12-20.73-.25-31-.48-35.77-.66-71.55.6-107.33-1.26,35.78-1.86,71.56-5.08,107.33-5.73,10.61-.25,20.31-.38,30.91-.49" transform="translate(-65.18 -4.81)"/><polyline class="cls-2" points="1473.31 261.37 1422.59 233.55 1422.59 335.55 1402.51 335.55"/><line class="cls-2" x1="1473.31" y1="340.01" x2="1473.31" y2="271.67"/><polyline class="cls-2" points="1259.15 340.38 1259.15 55.76 1361.16 96.37 1361.16 334.05 1361.16 335.74 1321.91 335.74"/><polyline class="cls-2" points="1400.78 340.01 1400.78 198.38 1321.54 156.78 1323.53 340.01"/><polyline class="cls-2" points="1474.21 276.13 1500.83 276.15 1448.09 247.65"/><polyline class="cls-2" points="1186.74 261.37 1237.46 233.55 1237.46 335.55 1256.55 335.92"/><line class="cls-2" x1="1188.98" y1="340.01" x2="1188.98" y2="271.67"/><polyline class="cls-2" points="1211.96 247.65 1159.22 276.15 1185.84 276.13"/><polyline class="cls-2" points="1314.22 77.05 1314.22 5 1212.46 5 1212.46 247.16"/></svg>