<?xml version="1.0" encoding="utf-8"?>
<!-- Generator: Adobe Illustrator 24.1.2, SVG Export Plug-In . SVG Version: 6.00 Build 0)  -->
<svg version="1.1" id="Layer_1" focusable="false" xmlns="http://www.w3.org/2000/svg" xmlns:xlink="http://www.w3.org/1999/xlink"
	 x="0px" y="0px" viewBox="0 0 640 512" style="enable-background:new 0 0 640 512;" xml:space="preserve">
<style type="text/css">
	.st0{fill:#FFFFFF;}
</style>
<path class="st0" d="M115.4,136.9l102.1,37.2c35.2-81.5,86.2-144.3,139-173.7c-95.9-4.9-188.8,37-248.5,111.8
	C101.3,120.6,105.3,133.2,115.4,136.9z M247.6,185.1l238.5,86.8c35.8-121.4,18.7-231.7-42.6-254c-7.4-2.7-15.1-4-23.1-4
	C362.4,13.9,292.1,83.1,247.6,185.1L247.6,185.1z M521.5,60.5c6.2,16.3,10.8,34.6,13.2,55.2c5.7,49.9-1.4,108.2-19,167L618.3,320
	c10.1,3.7,21.3-3.4,21.6-14.2C642.2,210.2,598,118.4,521.5,60.5L521.5,60.5z M560,448H321.1L386,269.5l-60.1-21.9L253,448H16
	c-8.8,0-16,7.2-16,16v32c0,8.8,7.2,16,16,16h544c8.8,0,16-7.2,16-16v-32C576,455.1,568.8,448,560,448L560,448z"/>
</svg>
